# xmcd
#
# Track frame offsets: 
#        150
#        21660
#        38582
#        54442
#        71480
#        86250
#        105977
#        123605
#        146917
#        163267
#        180687
#        196490
#
# Disc length: 2959 seconds
#
# Revision: 5
# Processed by: cddbd v1.5.2PL0 Copyright (c) Steve Scherf et al.
# Submitted via: ExactAudioCopy v0.99pb4
#
DISCID=a80b8d0c
DTITLE=Jeffrey Gaines - Jeffrey Gaines
DYEAR=1992
DGENRE=Pop
TTITLE0=Hero in Me
TTITLE1=Scares Me More
TTITLE2=Didn't Wanna Be Daddy
TTITLE3=Love Disappears
TTITLE4=Fear
TTITLE5=A Dark Love Song
TTITLE6=Why
TTITLE7=No, I Don't Think So
TTITLE8=Choices
TTITLE9=What It Is
TTITLE10=Sorry the Very Next Day
TTITLE11=Headmasters of Mine
EXTD=YEAR: 1992
EXTT0=
EXTT1=
EXTT2=
EXTT3=
EXTT4=
EXTT5=
EXTT6=
EXTT7=
EXTT8=
EXTT9=
EXTT10=
EXTT11=
PLAYORDER=
